<?xml version="1.0" encoding="UTF-8" standalone="no"?>
<svg xmlns="http://www.w3.org/2000/svg" width="120" height="40" viewBox="0 0 603 182">
  <path fill="#FF9900" d="M374.006 142.184c-34.999 25.797-85.729 39.561-129.406 39.561-61.243 0-116.376-22.651-158.087-60.325-3.275-2.963-.341-7 3.591-4.693 45.015 26.191 100.673 41.947 158.166 41.947 38.775 0 81.43-8.022 120.65-24.67 5.925-2.517 10.88 3.88 5.086 8.18M388.557 125.536c-4.457-5.715-29.573-2.7-40.846-1.363-3.434.419-3.959-2.569-.865-4.719 20.003-14.078 52.827-10.015 56.654-5.296 3.828 4.745-.996 37.647-19.793 53.352-2.884 2.412-5.637 1.127-4.352-2.07 4.22-10.539 13.685-34.16 9.202-39.904"/>
  <path fill="#000000" d="M348.496 20.067h-17.056V6.136c0-1.27 1.044-2.28 2.428-2.28h12.323c1.313 0 2.387 1.021 2.387 2.29v4.93h.084c3.433-9.582 9.86-14.013 18.508-14.013 8.777 0 14.264 4.431 18.21 14.013 3.492-9.582 11.498-14.013 20.005-14.013 6.082 0 12.742 2.506 16.81 8.132 4.617 6.262 3.684 15.343 3.684 23.311v46.925c0 1.266-1.045 2.276-2.427 2.276h-17.042c-1.26-.08-2.25-1.07-2.25-2.275V39.392c0-3.07.256-10.729-.42-13.635-.9-4.903-3.6-6.283-7.097-6.283-2.937 0-5.975 1.941-7.227 5.049-1.26 3.092-1.135 8.259-1.135 14.87v36.888c0 1.266-1.043 2.276-2.43 2.276h-17.042c-1.263-.08-2.255-1.07-2.255-2.275V39.392c0-8.133 1.343-20.019-8.816-20.019-10.282 0-9.883 11.636-9.883 20.019v36.888c0 1.266-1.044 2.276-2.426 2.276h-17.044c-1.262-.08-2.252-1.07-2.252-2.275V20.067zM124.419 105.022c-12.618 0-13.682-17.15-13.682-27.82 0-10.67-.342-33.645 13.52-33.645 13.997 0 14.678 19.509 14.678 31.394 0 7.8-.343 17.15-2.686 24.597-2.008 6.43-6.02 5.474-11.83 5.474m.166-91.323c-34.135 0-52.576 29.307-52.576 66.546 0 36.045 18.299 64.772 52.576 64.772 33.586 0 51.802-29.307 51.802-65.918 0-36.857-18.467-65.4-51.802-65.4M227.921 105.022c-12.621 0-13.682-17.15-13.682-27.82 0-10.67-.343-33.645 13.517-33.645 14.001 0 14.681 19.509 14.681 31.394 0 7.8-.345 17.15-2.686 24.597-2.008 6.43-6.02 5.474-11.83 5.474m.163-91.323c-34.123 0-52.562 29.307-52.562 66.546 0 36.045 18.294 64.772 52.562 64.772 33.585 0 51.804-29.307 51.804-65.918 0-36.857-18.471-65.4-51.804-65.4M528.154 104.12c-3.349 3.046-8.003 4.863-13.224 4.863-9.265 0-17.493-7.37-17.493-18.194 0-10.755 6.485-17.566 17.99-17.566 5.976 0 9.93 2.52 12.947 5.823l.41.185v17.824l-.63.065zm9.807 13.224c1.081 0 2.23-.897 2.23-2.187V34.857c0-1.21-1.066-2.187-2.23-2.187h-17.453c-1.27.08-2.24 1.04-2.24 2.187v9.344h-.245c-4.282-7.265-12.347-13.41-24.865-13.41-22.96 0-41.608 18.8-41.608 44.61 0 24.24 14.635 44.525 37.595 44.525 10.836 0 22.001-5.237 27.418-15.13h.327v9.007c0 1.222.9 2.186 2.226 2.186h19.076l-.231-.245zM295.705 104.12c-3.35 3.046-8.002 4.863-13.225 4.863-9.258 0-17.492-7.37-17.492-18.194 0-10.755 6.484-17.566 17.984-17.566 5.984 0 9.938 2.52 12.95 5.823l.411.185v17.824l-.628.065zm9.802 13.224c1.083 0 2.33-.897 2.33-2.187V34.857c0-1.21-1.156-2.187-2.33-2.187h-17.444c-1.275.08-2.34 1.04-2.34 2.187v9.344h-.16c-4.282-7.265-12.437-13.41-24.86-13.41-22.969 0-41.609 18.8-41.609 44.61 0 24.24 14.633 44.525 37.6 44.525 10.837 0 21.993-5.237 27.41-15.13h.328v9.007c0 1.222.99 2.186 2.323 2.186h18.98l-.228-.245z"/>
</svg>
