<?xml version="1.0" encoding="UTF-8" standalone="no"?>
<svg xmlns="http://www.w3.org/2000/svg" width="120" height="40" viewBox="0 0 108 24">
  <path fill="#737373" d="M44.836 4.6v13.8h-2.4V7.583H42.4L38.119 18.4h-1.588L32.142 7.583h-.029V18.4h-2.4V4.6h3.436L37.3 14.83h.058L41.545 4.6zm2.974 13.8V4.6h7.18v2.256h-4.728v3.36h4.4v2.256h-4.4v3.773h4.728V18.4zm9.265 0h-2.452V4.6h2.452zm13.961-2.188c-.63.402-1.315.723-2.06.964a9.133 9.133 0 01-2.335.361c-1.661 0-3.023-.435-4.084-1.306a5.57 5.57 0 01-2.016-3.84v-.028c0-1.4.382-2.69 1.146-3.84.764-1.15 1.825-2.06 3.183-2.703 1.359-.644 2.916-.967 4.672-.967.938 0 1.79.09 2.567.27.776.18 1.5.4 2.166.662v2.342c-.692-.33-1.4-.6-2.124-.811-.723-.21-1.483-.316-2.28-.316-1.661 0-2.975.422-3.941 1.264-.967.842-1.45 1.948-1.45 3.317v.029c0 1.382.476 2.488 1.43 3.316.953.83 2.26 1.244 3.92 1.244.708 0 1.351-.065 1.927-.197.577-.131 1.12-.324 1.63-.578zm3.376-11.612h2.452V18.4h-2.452zm13.38 2.256h-3.733v11.544h-2.452V6.856h-3.704V4.6h9.889v2.256zm7.883 11.612c-.39 0-.797-.044-1.22-.133-.424-.089-.838-.223-1.244-.4v-2.11c.362.2.717.349 1.067.448.35.099.684.148 1.004.148.592 0 1.027-.118 1.304-.355.277-.237.415-.562.415-.975v-.029c0-.312-.05-.564-.148-.756a1.28 1.28 0 00-.49-.474 7.12 7.12 0 00-.926-.355c-.93-.295-1.663-.645-2.195-1.05-.532-.405-.918-.863-1.156-1.374-.239-.51-.358-1.112-.358-1.806v-.029c0-.741.192-1.41.574-2.01.382-.6.933-1.078 1.652-1.434.72-.356 1.604-.534 2.654-.534.442 0 .89.051 1.343.15.452.1.877.242 1.273.429v2.055a6.406 6.406 0 00-1.082-.397c-.39-.117-.737-.176-1.038-.176-.519 0-.925.111-1.22.335-.295.223-.442.53-.442.92v.03c0 .302.093.565.279.79.186.224.438.413.756.566.318.154.852.394 1.604.72.577.224 1.052.449 1.423.673.372.224.693.49.964.799.271.31.482.651.633 1.024.15.372.226.82.226 1.345v.028c0 .8-.205 1.517-.613 2.151-.41.634-.999 1.134-1.764 1.497-.766.364-1.696.546-2.791.546zm9.06.133c-.762 0-1.457-.133-2.084-.398a4.097 4.097 0 01-1.597-1.205c-.382-.537-.572-1.182-.572-1.935v-.03c0-.742.187-1.377.56-1.908.375-.53.904-.938 1.59-1.222.684-.284 1.49-.426 2.417-.426.47 0 .901.015 1.293.044.392.03.777.089 1.156.176v-.355c0-.664-.207-1.18-.62-1.546-.413-.366-1.037-.55-1.869-.55-.592 0-1.12.072-1.586.217a6.844 6.844 0 00-1.363.579V6.369c.461-.19.958-.345 1.49-.467a7.345 7.345 0 011.775-.185c1.543 0 2.732.357 3.565 1.068.833.712 1.25 1.766 1.25 3.162V18.4h-2.423v-1.057h-.059c-.24.395-.605.734-1.097 1.016-.493.283-1.121.424-1.884.424zm.67-1.982c.567 0 1.057-.149 1.47-.448.413-.3.62-.707.62-1.223v-.355a5.748 5.748 0 00-.944-.16 7.963 7.963 0 00-.896-.045c-.591 0-1.073.116-1.445.348-.372.232-.558.567-.558 1.005v.03c0 .414.166.732.5.956.331.223.738.335 1.221.335z"/>
  <path fill="#F25022" d="M0 0h10.667v10.667H0z"/>
  <path fill="#7FBA00" d="M12 0h10.667v10.667H12z"/>
  <path fill="#00A4EF" d="M0 12h10.667v10.667H0z"/>
  <path fill="#FFB900" d="M12 12h10.667v10.667H12z"/>
</svg>
